{
	"asset":{
		"generator":"Khronos glTF Blender I/O v5.0.21",
		"version":"2.0"
	},
	"extensionsUsed":[
		"KHR_materials_transmission",
		"KHR_materials_ior"
	],
	"scene":0,
	"scenes":[
		{
			"name":"Scene",
			"nodes":[
				0,
				1
			]
		}
	],
	"nodes":[
		{
			"mesh":0,
			"name":"Plane"
		},
		{
			"mesh":1,
			"name":"Cylinder"
		}
	],
	"materials":[
		{
			"doubleSided":true,
			"name":"Material.001",
			"pbrMetallicRoughness":{
				"baseColorFactor":[
					0,
					0.44751566648483276,
					1,
					1
				],
				"metallicFactor":0,
				"roughnessFactor":0.5
			}
		},
		{
			"doubleSided":true,
			"name":"Material.002",
			"pbrMetallicRoughness":{
				"baseColorFactor":[
					1,
					0,
					0,
					1
				],
				"metallicFactor":0,
				"roughnessFactor":0.5
			}
		},
		{
			"doubleSided":true,
			"name":"Material.003",
			"pbrMetallicRoughness":{
				"baseColorFactor":[
					0.03310474380850792,
					1,
					0,
					1
				],
				"metallicFactor":0,
				"roughnessFactor":0.5
			}
		},
		{
			"doubleSided":true,
			"name":"Material",
			"pbrMetallicRoughness":{
				"baseColorFactor":[
					1,
					0.7874124050140381,
					0,
					1
				],
				"metallicFactor":0,
				"roughnessFactor":0.5
			}
		},
		{
			"alphaMode":"BLEND",
			"doubleSided":true,
			"extensions":{
				"KHR_materials_transmission":{
					"transmissionFactor":1
				},
				"KHR_materials_ior":{
					"ior":1.4500000476837158
				}
			},
			"name":"Material.004",
			"pbrMetallicRoughness":{
				"baseColorFactor":[
					0.5028865337371826,
					0.7454044222831726,
					0.7991030812263489,
					0.30000001192092896
				],
				"metallicFactor":0,
				"roughnessFactor":0
			}
		}
	],
	"meshes":[
		{
			"name":"Plane",
			"primitives":[
				{
					"attributes":{
						"POSITION":0,
						"NORMAL":1,
						"TEXCOORD_0":2
					},
					"indices":3,
					"material":0
				},
				{
					"attributes":{
						"POSITION":4,
						"NORMAL":5,
						"TEXCOORD_0":6
					},
					"indices":7,
					"material":1
				},
				{
					"attributes":{
						"POSITION":8,
						"NORMAL":9,
						"TEXCOORD_0":10
					},
					"indices":11,
					"material":2
				},
				{
					"attributes":{
						"POSITION":12,
						"NORMAL":13,
						"TEXCOORD_0":14
					},
					"indices":15,
					"material":3
				}
			]
		},
		{
			"name":"Cylinder",
			"primitives":[
				{
					"attributes":{
						"POSITION":16,
						"NORMAL":17,
						"TEXCOORD_0":18
					},
					"indices":19,
					"material":4
				}
			]
		}
	],
	"accessors":[
		{
			"bufferView":0,
			"componentType":5126,
			"count":3628,
			"max":[
				0.7718889713287354,
				10.332466125488281,
				0.7718889117240906
			],
			"min":[
				-0.7718889713287354,
				0,
				-0.7718889117240906
			],
			"type":"VEC3"
		},
		{
			"bufferView":1,
			"componentType":5126,
			"count":3628,
			"type":"VEC3"
		},
		{
			"bufferView":2,
			"componentType":5126,
			"count":3628,
			"type":"VEC2"
		},
		{
			"bufferView":3,
			"componentType":5123,
			"count":9624,
			"type":"SCALAR"
		},
		{
			"bufferView":4,
			"componentType":5126,
			"count":256,
			"max":[
				0.5261475443840027,
				9.901947021484375,
				0.5261474847793579
			],
			"min":[
				-0.5261474847793579,
				0.10762985050678253,
				-0.5261474847793579
			],
			"type":"VEC3"
		},
		{
			"bufferView":5,
			"componentType":5126,
			"count":256,
			"type":"VEC3"
		},
		{
			"bufferView":6,
			"componentType":5126,
			"count":256,
			"type":"VEC2"
		},
		{
			"bufferView":7,
			"componentType":5123,
			"count":384,
			"type":"SCALAR"
		},
		{
			"bufferView":8,
			"componentType":5126,
			"count":256,
			"max":[
				0.5261474847793579,
				9.901947021484375,
				0.5261474847793579
			],
			"min":[
				-0.5261475443840027,
				0.10762985050678253,
				-0.5261474847793579
			],
			"type":"VEC3"
		},
		{
			"bufferView":9,
			"componentType":5126,
			"count":256,
			"type":"VEC3"
		},
		{
			"bufferView":10,
			"componentType":5126,
			"count":256,
			"type":"VEC2"
		},
		{
			"bufferView":11,
			"componentType":5123,
			"count":384,
			"type":"SCALAR"
		},
		{
			"bufferView":12,
			"componentType":5126,
			"count":240,
			"max":[
				0.5261475443840027,
				9.579056739807129,
				0.5261475443840027
			],
			"min":[
				-0.5261475443840027,
				0.4305194020271301,
				-0.5261474847793579
			],
			"type":"VEC3"
		},
		{
			"bufferView":13,
			"componentType":5126,
			"count":240,
			"type":"VEC3"
		},
		{
			"bufferView":14,
			"componentType":5126,
			"count":240,
			"type":"VEC2"
		},
		{
			"bufferView":15,
			"componentType":5123,
			"count":360,
			"type":"SCALAR"
		},
		{
			"bufferView":16,
			"componentType":5126,
			"count":98,
			"max":[
				1.3017499446868896,
				10.884883880615234,
				1.3017499446868896
			],
			"min":[
				-1.3017499446868896,
				-0.5633149147033691,
				-1.3017499446868896
			],
			"type":"VEC3"
		},
		{
			"bufferView":17,
			"componentType":5126,
			"count":98,
			"type":"VEC3"
		},
		{
			"bufferView":18,
			"componentType":5126,
			"count":98,
			"type":"VEC2"
		},
		{
			"bufferView":19,
			"componentType":5123,
			"count":282,
			"type":"SCALAR"
		}
	],
	"bufferViews":[
		{
			"buffer":0,
			"byteLength":43536,
			"byteOffset":0,
			"target":34962
		},
		{
			"buffer":0,
			"byteLength":43536,
			"byteOffset":43536,
			"target":34962
		},
		{
			"buffer":0,
			"byteLength":29024,
			"byteOffset":87072,
			"target":34962
		},
		{
			"buffer":0,
			"byteLength":19248,
			"byteOffset":116096,
			"target":34963
		},
		{
			"buffer":0,
			"byteLength":3072,
			"byteOffset":135344,
			"target":34962
		},
		{
			"buffer":0,
			"byteLength":3072,
			"byteOffset":138416,
			"target":34962
		},
		{
			"buffer":0,
			"byteLength":2048,
			"byteOffset":141488,
			"target":34962
		},
		{
			"buffer":0,
			"byteLength":768,
			"byteOffset":143536,
			"target":34963
		},
		{
			"buffer":0,
			"byteLength":3072,
			"byteOffset":144304,
			"target":34962
		},
		{
			"buffer":0,
			"byteLength":3072,
			"byteOffset":147376,
			"target":34962
		},
		{
			"buffer":0,
			"byteLength":2048,
			"byteOffset":150448,
			"target":34962
		},
		{
			"buffer":0,
			"byteLength":768,
			"byteOffset":152496,
			"target":34963
		},
		{
			"buffer":0,
			"byteLength":2880,
			"byteOffset":153264,
			"target":34962
		},
		{
			"buffer":0,
			"byteLength":2880,
			"byteOffset":156144,
			"target":34962
		},
		{
			"buffer":0,
			"byteLength":1920,
			"byteOffset":159024,
			"target":34962
		},
		{
			"buffer":0,
			"byteLength":720,
			"byteOffset":160944,
			"target":34963
		},
		{
			"buffer":0,
			"byteLength":1176,
			"byteOffset":161664,
			"target":34962
		},
		{
			"buffer":0,
			"byteLength":1176,
			"byteOffset":162840,
			"target":34962
		},
		{
			"buffer":0,
			"byteLength":784,
			"byteOffset":164016,
			"target":34962
		},
		{
			"buffer":0,
			"byteLength":564,
			"byteOffset":164800,
			"target":34963
		}
	],
	"buffers":[
		{
			"byteLength":165364,
			"uri":"DNA-glas.bin"
		}
	]
}
